# xmcd
#
# Track frame offsets:
#	150
#	11174
#	24630
#	38655
#	49940
#	57217
#	69431
#	80836
#	98286
#	113414
#	129283
#	141919
#
# Disc length: 2054 seconds
#
# Revision: 1
# Processed by: cddbd v1.5.2PL0 Copyright (c) Steve Scherf et al.
# Submitted via: audiograbber 1.83.01
#
DISCID=9508040c
DTITLE=та паидиа ап' тгм патяа (BY DJ ZRAF) - вяусес епитувиес
DYEAR=2007
DGENRE=каийа
TTITLE0=пийяамес том жамтаяо
TTITLE1=ои лпуяес
TTITLE2=дем хекы тгм сулпомиа йамемос
TTITLE3=ема бяаду поу 'бяеве
TTITLE4=ха та йаьы та кежта лоу
TTITLE5=лес тгс покгс то валал (то ваяели сто валал)
TTITLE6=о акежамтос
TTITLE7=памта есема суккоциелаи
TTITLE8=цяалла пийяалемо
TTITLE9=дем се кгсломы
TTITLE10=ха жуцы йаи ха ле фгтас
TTITLE11=сам то пайето (аккг ацапг епиасес)
EXTD=
EXTT0=
EXTT1=
EXTT2=
EXTT3=
EXTT4=
EXTT5=
EXTT6=
EXTT7=
EXTT8=
EXTT9=
EXTT10=
EXTT11=
PLAYORDER=
